Coordinates
version=1
nRows=7
nColumns=42
inDegrees=yes

Units are S.I. units (second, meters, Newtons, ...)
If the header above contains a line with 'inDegrees', this indicates whether rotational values are in degrees (yes) or radians (no).

endheader
time	pelvis_tilt	pelvis_list	pelvis_rotation	pelvis_tx	pelvis_ty	pelvis_tz	hip_flexion_r	hip_adduction_r	hip_rotation_r	knee_angle_r	knee_adduction_r	knee_angle_r_beta	ankle_angle_r	subtalar_angle_r	mtp_angle_r	hip_flexion_l	hip_adduction_l	hip_rotation_l	knee_angle_l	knee_adduction_l	knee_angle_l_beta	ankle_angle_l	subtalar_angle_l	mtp_angle_l	lumbar_extension	lumbar_bending	lumbar_rotation	arm_flex_r	arm_add_r	arm_rot_r	elbow_flex_r	pro_sup_r	wrist_flex_r	wrist_dev_r	arm_flex_l	arm_add_l	arm_rot_l	elbow_flex_l	pro_sup_l	wrist_flex_l	wrist_dev_l
      8.50000000	      6.91571907	     -0.89505060	     -3.95682011	      0.97779456	      0.93846536	     -0.14539567	     11.30082208	     -9.16411558	    -24.96133283	     27.17445955	      5.30695632	      0.47428379	      5.89827440	     15.62771560	     -7.50023585	     -4.36974952	     -0.95984513	    -18.42952171	     25.07662259	      3.20568970	      0.43766963	     20.06462143	     -1.43036447	     -7.50023585	    -18.33203965	      0.13506490	     -3.60076722	      6.20359089	    -10.62519954	      5.49106212	     41.44015209	     90.00000001	      0.00000000	      0.00000000	    -12.29420774	    -11.22884859	     -0.71774634	     50.28990478	     90.00000001	      0.00000000	      0.00000000
      8.51000000	      6.99943559	     -0.69619608	     -3.64788240	      0.98089262	      0.93802630	     -0.14488701	     11.23200793	     -9.14567322	    -24.95750024	     27.53673338	      4.87519490	      0.48060666	      6.66749755	     14.75584881	     -7.50023385	     -4.62251007	     -0.70202357	    -18.06653943	     25.03486475	      3.02640283	      0.43694082	     20.36573913	     -1.28826055	     -7.50023385	    -18.33873797	      0.10164288	     -3.71062232	      6.12376362	    -10.61874414	      5.28740404	     41.15081175	     90.00000001	      0.00000000	      0.00000000	    -12.00986156	    -11.26026032	     -0.58433556	     50.12144034	     90.00000001	      0.00000000	      0.00000000
      8.52000000	      6.96579942	     -0.57507788	     -3.41321926	      0.98426470	      0.93748390	     -0.14426069	     11.14449808	     -9.12191066	    -24.79947733	     27.65275148	      4.74109827	      0.48263156	      6.74071032	     14.66298737	     -7.50023356	     -4.78114024	     -0.65177000	    -18.01164315	     25.06330293	      2.98937243	      0.43743716	     20.39342045	     -1.27057699	     -7.50023356	    -18.18465117	      0.14226801	     -3.77597692	      5.95196734	    -10.68447823	      5.24840963	     41.03197514	     90.00000001	      0.00000000	      0.00000000	    -11.87404257	    -11.23642682	     -0.57262313	     50.15846074	     90.00000001	      0.00000000	      0.00000000
      8.53000000	      7.00762659	     -0.40358269	     -3.14678070	      0.98740672	      0.93706134	     -0.14364703	     11.16424672	     -9.11479665	    -24.66207528	     28.14867811	      4.38554908	      0.49128711	      7.64522089	     13.68378125	     -7.50023151	     -5.03887682	     -0.42048463	    -17.57877687	     24.93550146	      2.87136132	      0.43520660	     20.68468086	     -1.12866289	     -7.50023151	    -18.15133501	      0.13715202	     -3.85330449	      5.90775839	    -10.67337662	      4.99496936	     40.72478757	     90.00000001	      0.00000000	      0.00000000	    -11.59575947	    -11.23217110	     -0.47142331	     49.96300061	     90.00000001	      0.00000000	      0.00000000
      8.54000000	      6.98833934	     -0.29974894	     -2.88758872	      0.99075826	      0.93661575	     -0.14304159	     11.10005938	     -9.08735540	    -24.42528825	     28.34471487	      4.23354363	      0.49470860	      7.77964891	     13.51125015	     -7.50023101	     -5.21388335	     -0.36819428	    -17.46676375	     24.94126817	      2.79326355	      0.43530725	     20.72516830	     -1.10410509	     -7.50023101	    -18.03060266	      0.21407799	     -3.91152542	      5.73370711	    -10.75449645	      4.92136568	     40.56903624	     90.00000001	      0.00000000	      0.00000000	    -11.43836878	    -11.18184044	     -0.45487536	     49.99352160	     90.00000001	      0.00000000	      0.00000000
      8.55000000	      6.91777536	     -0.08570971	     -2.73140943	      0.99393868	      0.93605493	     -0.14223149	     11.28916514	     -9.20334980	    -24.00377176	     28.95151299	      4.12143704	      0.50529923	      8.66330164	     12.21221488	     -7.50022750	     -5.42409558	     -0.09886666	    -17.03252997	     24.70531944	      2.76098194	      0.43118917	     20.97701709	     -1.01248203	     -7.50022750	    -17.86781804	      0.13342589	     -3.93558292	      5.75306411	    -10.68226223	      4.49430554	     40.21437258	     90.00000001	      0.00000000	      0.00000000	    -11.20938714	    -11.15374985	     -0.40506686	     49.80586250	     90.00000001	      0.00000000	      0.00000000
      8.56000000	      6.88274524	      0.01535104	     -2.54931249	      0.99722823	      0.93564668	     -0.14139153	     11.33232565	     -9.18052247	    -23.65703335	     29.33610703	      3.98942929	      0.51201166	      9.04261592	     11.52735047	     -7.50022507	     -5.64204828	     -0.02301284	    -16.86746710	     24.59384282	      2.69044497	      0.42924353	     21.07166929	     -1.03264372	     -7.50022507	    -17.74217045	      0.18377322	     -3.95794767	      5.70433435	    -10.69346935	      4.26228281	     39.99484801	     90.00000001	      0.00000000	      0.00000000	    -11.03558798	    -11.08671118	     -0.40354176	     49.75710045	     90.00000001	      0.00000000	      0.00000000
